<svg width="22" height="22" viewBox="0 0 22 22" fill="none" xmlns="http://www.w3.org/2000/svg">
<path fill-rule="evenodd" clip-rule="evenodd" d="M8 18.5C8 18.9142 7.66421 19.25 7.25 19.25H2.75C1.9464 19.2495 1.20406 18.8205 0.80247 18.1244C0.40088 17.4283 0.401011 16.5709 0.802812 15.875L4.0175 10.3203L2.70031 10.6719C2.44074 10.7412 2.16389 10.6668 1.97406 10.4767C1.78423 10.2865 1.71025 10.0096 1.78 9.75009C1.84974 9.49063 2.05261 9.28808 2.31219 9.21875L5.38438 8.39656C5.57658 8.34503 5.78138 8.372 5.95369 8.47152C6.12601 8.57104 6.25171 8.73496 6.30312 8.92719L7.12719 11.9994C7.17976 12.1925 7.15298 12.3986 7.05279 12.5718C6.95261 12.7451 6.78734 12.8711 6.59375 12.9219C6.53007 12.9385 6.46455 12.947 6.39875 12.9472C6.05954 12.9469 5.76277 12.7189 5.675 12.3912L5.31875 11.0647L2.10406 16.625C1.9704 16.8565 1.97006 17.1416 2.10316 17.3735C2.23626 17.6053 2.48269 17.7487 2.75 17.75H7.25C7.66421 17.75 8 18.0858 8 18.5ZM21.1934 15.875L19.0241 12.125C18.8084 11.7858 18.3638 11.6769 18.0158 11.878C17.6678 12.0792 17.5403 12.5189 17.7266 12.875L19.8959 16.625C20.0296 16.8565 20.0299 17.1416 19.8968 17.3735C19.7637 17.6053 19.5173 17.7487 19.25 17.75H12.8103L13.7797 16.7806C14.0727 16.4878 14.073 16.0129 13.7802 15.7198C13.4874 15.4268 13.0124 15.4266 12.7194 15.7194L10.4694 17.9694C10.3285 18.1101 10.2494 18.3009 10.2494 18.5C10.2494 18.6991 10.3285 18.8899 10.4694 19.0306L12.7194 21.2806C13.0124 21.5734 13.4874 21.5732 13.7802 21.2802C14.073 20.9871 14.0727 20.5122 13.7797 20.2194L12.8103 19.25H19.25C20.0536 19.2495 20.7959 18.8205 21.1975 18.1244C21.5991 17.4283 21.599 16.5709 21.1972 15.875H21.1934ZM11 2C11.2685 1.99731 11.5171 2.14102 11.6488 2.375L14.8634 7.92969L13.5434 7.57531C13.1489 7.48271 12.7522 7.72027 12.6475 8.11178C12.5428 8.5033 12.7681 8.90714 13.1562 9.02375L16.2294 9.84781C16.2927 9.86445 16.3579 9.87296 16.4234 9.87313C16.7626 9.8728 17.0594 9.64485 17.1472 9.31719L17.9713 6.24312C18.0483 5.98185 17.9776 5.69936 17.7866 5.50516C17.5956 5.31096 17.3143 5.23558 17.0518 5.30826C16.7892 5.38093 16.5868 5.59022 16.5228 5.855L16.1666 7.18344L12.9472 1.625C12.5449 0.930183 11.8029 0.502369 11 0.502369C10.1971 0.502369 9.45509 0.930183 9.05281 1.625L6.88156 5.375C6.68757 5.73225 6.81351 6.17901 7.16553 6.38234C7.51755 6.58567 7.96747 6.47154 8.18 6.125L10.3512 2.375C10.4829 2.14102 10.7315 1.99731 11 2Z" fill="#121712"/>
</svg>
